PathFileType	4	(X/Y/Z)	./resultDataOpenSim/trcMotMarkerGrf/sub10/qtm-02-02.trc
DataRate	CameraRate	NumFrames	NumMarkers	Units	OrigDataRate	OrigDataStartFrame	OrigNumFrames
250.000000	250.000000	12	24	m	250.000000	185	491
Frame#	Time	L.Toe.Tip			R.Toe.Tip			L.Ankle.Lat			R.Ankle.Lat			L.Ankle.Med			R.Ankle.Med			L.Heel			R.Heel			L.Knee.Lat			R.Knee.Lat			L.Knee.Med			R.Knee.Med			L.Thigh.Upper			R.Thigh.Upper			L.ASIS			R.ASIS			V.Sacral			L.Acromium			R.Acromium			C7			L.Elbow			R.Elbow			L.Wrist.Lat			R.Wrist.Lat
		X1	Y1	Z1	X2	Y2	Z2	X3	Y3	Z3	X4	Y4	Z4	X5	Y5	Z5	X6	Y6	Z6	X7	Y7	Z7	X8	Y8	Z8	X9	Y9	Z9	X10	Y10	Z10	X11	Y11	Z11	X12	Y12	Z12	X13	Y13	Z13	X14	Y14	Z14	X15	Y15	Z15	X16	Y16	Z16	X17	Y17	Z17	X18	Y18	Z18	X19	Y19	Z19	X20	Y20	Z20	X21	Y21	Z21	X22	Y22	Z22	X23	Y23	Z23	X24	Y24	Z24

185	0.736	0.013413967	0.018778252	-0.11996478	-0.72951495	0.039279018	-0.034984366	-0.11927554	0.041494524	-0.15640585	-0.76876402	0.17310654	-0.0050170152	-0.11936399	0.0650002	-0.073682108	-0.72314549	0.15694209	-0.078784801	-0.18643797	0.010994715	-0.11788569	-0.8056342	0.19713993	-0.062310795	-0.10646921	0.43228862	-0.19451548	-0.44571932	0.38923741	0.039457228	-0.10117054	0.41721954	-0.073509774	-0.39545852	0.36722384	-0.078380252	-0.24114375	0.79331908	-0.27654345	-0.37591589	0.77667157	0.087494945	-0.22395248	0.90091883	-0.19693773	-0.27979831	0.87256421	0.037247144	-0.45032142	0.88917088	-0.12212142	-0.34080638	1.3634969	-0.23087574	-0.34252675	1.3318008	0.093435686	-0.42669187	1.3733894	-0.070765103	-0.47767958	1.058985	-0.30898384	-0.34740346	0.97449075	0.11976034	-0.4251662	0.8293176	-0.3579972	-0.13004062	0.84761191	0.11693565
186	0.74	0.013754257	0.018423456	-0.11982416	-0.7259637	0.040813333	-0.035081019	-0.11894121	0.041267113	-0.15622584	-0.75950835	0.17646212	-0.0043997167	-0.11905692	0.064573401	-0.073421465	-0.71345602	0.15892121	-0.077569405	-0.18640069	0.011060729	-0.11794294	-0.79447614	0.20276932	-0.061398326	-0.10283791	0.43131026	-0.19463926	-0.43455463	0.38830002	0.040615754	-0.098295657	0.41595871	-0.073233621	-0.38262049	0.36467319	-0.076803761	-0.23532168	0.79331809	-0.27742838	-0.36815099	0.77584221	0.086771726	-0.21780018	0.90191876	-0.19808856	-0.27278918	0.87236574	0.03619695	-0.44395292	0.88936805	-0.12092182	-0.33503002	1.3640716	-0.23105238	-0.33537305	1.3316191	0.092956536	-0.42047721	1.3735566	-0.070496898	-0.47089832	1.058876	-0.3089554	-0.34149637	0.9746823	0.11852757	-0.41705999	0.8295431	-0.35848667	-0.12552733	0.84525563	0.11613444
187	0.744	0.014058053	0.018124971	-0.11965702	-0.72199139	0.042613954	-0.035183826	-0.11862093	0.041042668	-0.15611016	-0.74992283	0.17979932	-0.0037369447	-0.11879568	0.064197416	-0.073233358	-0.70359055	0.16109641	-0.076476968	-0.18635292	0.011122209	-0.11800535	-0.7828453	0.20855338	-0.060121884	-0.099294777	0.43038657	-0.19469483	-0.42341124	0.38740032	0.041793281	-0.095817721	0.41458369	-0.072966075	-0.3698008	0.36219557	-0.075280356	-0.22943117	0.79330818	-0.27831926	-0.36047327	0.77502894	0.086053797	-0.21169963	0.90281255	-0.19920735	-0.26586648	0.87219055	0.035210919	-0.43756543	0.88967419	-0.11969297	-0.32916296	1.3646435	-0.23126541	-0.32827906	1.3314505	0.092511069	-0.41431013	1.3737371	-0.070288664	-0.46412778	1.0587817	-0.3090375	-0.33558729	0.97486325	0.11729309	-0.40885904	0.82979185	-0.35897783	-0.12107493	0.84289486	0.11540827
188	0.748	0.014323763	0.017873652	-0.11948391	-0.71753369	0.044614949	-0.035310241	-0.1183236	0.040831731	-0.15604358	-0.73977134	0.18320436	-0.002962833	-0.1186196	0.06388011	-0.073132975	-0.69353187	0.16349218	-0.075579992	-0.18630029	0.01117881	-0.11804745	-0.77058257	0.2143356	-0.058764161	-0.095793107	0.42954279	-0.19468071	-0.4123209	0.38656975	0.042986469	-0.093678362	0.41315717	-0.072760104	-0.35706252	0.35988201	-0.073862853	-0.22347933	0.79338043	-0.2792362	-0.35288056	0.77426629	0.085368608	-0.20564181	0.90360412	-0.20028136	-0.25899874	0.87205801	0.034281234	-0.43137224	0.89008631	-0.11820488	-0.32322605	1.3652354	-0.23151539	-0.32123524	1.3313195	0.092126735	-0.40817612	1.3739488	-0.070137543	-0.45735998	1.0587203	-0.30915437	-0.3296802	0.97504154	0.11603661	-0.40057212	0.83007831	-0.35947166	-0.11669453	0.84054545	0.11475628
189	0.752	0.014553084	0.017660451	-0.11933892	-0.71243321	0.046855993	-0.035449794	-0.11806005	0.040641465	-0.15600722	-0.72894284	0.18673223	-0.0020409006	-0.11850353	0.063625782	-0.073079619	-0.68326471	0.16611018	-0.074856988	-0.18626434	0.011238624	-0.11805741	-0.75773583	0.21992388	-0.057597981	-0.092306341	0.42877441	-0.19461238	-0.40129526	0.38582201	0.044176784	-0.09176404	0.41174847	-0.07260362	-0.34439403	0.35784935	-0.072566092	-0.21747921	0.79361143	-0.28018873	-0.34535782	0.77359824	0.084735989	-0.19962772	0.90430081	-0.20130088	-0.25217867	0.87198582	0.033416341	-0.42546618	0.89061795	-0.11642679	-0.31724381	1.3658655	-0.2317895	-0.31423558	1.3312454	0.09179744	-0.40205589	1.3742148	-0.07004177	-0.45058432	1.058707	-0.30920241	-0.32378535	0.97523217	0.11474903	-0.39221358	0.83041378	-0.3599696	-0.11239734	0.83822381	0.11417454
190	0.756	0.014752135	0.017478568	-0.119234	-0.70647053	0.049420822	-0.035530347	-0.11783635	0.040473061	-0.1559886	-0.71756669	0.19038366	-0.0010395085	-0.11841533	0.063431926	-0.073026129	-0.67280251	0.16894877	-0.074262292	-0.18627613	0.01131545	-0.11801956	-0.74466664	0.22515312	-0.056706144	-0.088827992	0.4280617	-0.19451724	-0.39031031	0.38515829	0.04533124	-0.089980311	0.41042001	-0.072489557	-0.3317046	0.35622389	-0.071310247	-0.21144865	0.79402708	-0.28116667	-0.33788853	0.77306531	0.084173589	-0.19367242	0.90490687	-0.20226472	-0.24541305	0.8719907	0.032629821	-0.41980015	0.89135699	-0.1145975	-0.31120823	1.3665404	-0.23207529	-0.30728973	1.3312354	0.091508854	-0.39593297	1.3745601	-0.06999777	-0.44378994	1.0587454	-0.30909811	-0.31791592	0.97545449	0.11343292	-0.38379235	0.83080902	-0.36046779	-0.10819341	0.83594298	0.11365785
191	0.76	0.01492772	0.017322042	-0.11916179	-0.69941412	0.052336311	-0.035431659	-0.11764899	0.040323906	-0.15598325	-0.70599492	0.19408172	-0.00013248946	-0.1183404	0.063290778	-0.072965329	-0.66219194	0.17200619	-0.073784866	-0.18635779	0.011419836	-0.11792411	-0.73187183	0.22991572	-0.05605421	-0.085370217	0.42738453	-0.19443196	-0.37932464	0.38459112	0.04642584	-0.088319576	0.40922044	-0.07248597	-0.31892203	0.35510652	-0.070001159	-0.20541079	0.79459573	-0.28213729	-0.33047774	0.77268746	0.083696328	-0.18778365	0.90542622	-0.20316402	-0.23871184	0.8720892	0.031929327	-0.414243	0.89239275	-0.11301758	-0.30511138	1.3672628	-0.23235646	-0.30041821	1.3312918	0.091257164	-0.38979385	1.375008	-0.069997658	-0.43696463	1.0588307	-0.30879959	-0.31208256	0.97572524	0.11209877	-0.37530896	0.83127609	-0.36095772	-0.10409205	0.83371344	0.11320006
192	0.764	0.015079417	0.01718772	-0.11911283	-0.69106896	0.055515919	-0.035074326	-0.11748727	0.040192973	-0.15599036	-0.69455489	0.19772481	0.00051094389	-0.11825932	0.063195663	-0.072921873	-0.65147807	0.17525108	-0.073439168	-0.18648024	0.011539876	-0.11780064	-0.71969054	0.23416734	-0.055622556	-0.081954451	0.42673337	-0.19439954	-0.36830764	0.38416358	0.047466223	-0.086805597	0.4081839	-0.072690107	-0.30612307	0.35453827	-0.068690763	-0.19939699	0.79525717	-0.2830528	-0.32316061	0.77247019	0.083310217	-0.18194687	0.90586849	-0.20397356	-0.23208274	0.87229422	0.031317366	-0.40863673	0.8936657	-0.11182601	-0.29898042	1.3680355	-0.23260656	-0.29363748	1.3314207	0.091048322	-0.38362837	1.3755786	-0.070029292	-0.4300988	1.0589603	-0.30835743	-0.30629145	0.97605548	0.1107617	-0.3667626	0.8318256	-0.36142802	-0.10010604	0.83154684	0.11279349
193	0.768	0.015189007	0.017080372	-0.11907644	-0.68131216	0.058792497	-0.034495099	-0.1173422	0.040081496	-0.15600929	-0.68331758	0.20126803	0.00083386579	-0.1181512	0.063143756	-0.0729132	-0.64066607	0.17860276	-0.073234578	-0.18655169	0.011637173	-0.11772567	-0.70818032	0.23790757	-0.055426328	-0.078605954	0.42610936	-0.19445724	-0.35724441	0.38394064	0.04848617	-0.085404741	0.40732588	-0.073125317	-0.29349699	0.35449259	-0.067566551	-0.19345198	0.79595853	-0.28386652	-0.31598481	0.77242268	0.083010215	-0.17614009	0.90624998	-0.20466682	-0.22553236	0.87261126	0.03080163	-0.40290359	0.89494768	-0.11098493	-0.29284704	1.3688602	-0.2328067	-0.28694956	1.3316345	0.090888943	-0.37743341	1.3762838	-0.070075498	-0.42318209	1.0591366	-0.30796508	-0.30054618	0.97645302	0.10944039	-0.35815915	0.83246411	-0.36186811	-0.096254325	0.82945637	0.11242669
194	0.772	0.015222584	0.017011129	-0.11903402	-0.67012797	0.062003056	-0.033811903	-0.11721394	0.03998957	-0.15603984	-0.67215818	0.20471783	0.00087390829	-0.11801784	0.063133649	-0.072935422	-0.62971727	0.18195931	-0.073169003	-0.18650237	0.011684176	-0.11775775	-0.69719782	0.24115144	-0.055482087	-0.075362444	0.42551856	-0.19462234	-0.34612236	0.38398617	0.049521946	-0.083989566	0.40665562	-0.073697492	-0.28117171	0.35489794	-0.066762917	-0.18763397	0.79666559	-0.28454845	-0.30898386	0.77255573	0.0827836	-0.17035199	0.90658832	-0.20523061	-0.21906654	0.87304064	0.030396865	-0.39739662	0.89606682	-0.11025049	-0.28670799	1.3697381	-0.23295909	-0.28035343	1.3319463	0.090780082	-0.37121279	1.3771221	-0.070116119	-0.4161879	1.0593601	-0.3078716	-0.29485262	0.97692496	0.10815868	-0.34950874	0.83319461	-0.36227119	-0.092559426	0.82745384	0.11208454
195	0.776	0.015166935	0.016982184	-0.11897686	-0.65765613	0.0650466	-0.033125865	-0.11711053	0.039915742	-0.15608246	-0.66092709	0.20807936	0.00069178825	-0.11787738	0.063162106	-0.072981072	-0.61856897	0.18524429	-0.073240701	-0.18637157	0.011699498	-0.11787069	-0.68653055	0.24392324	-0.055779508	-0.072273312	0.42496944	-0.19489115	-0.33490317	0.38434006	0.050559881	-0.082370342	0.40619562	-0.074245622	-0.26913604	0.35567191	-0.066264587	-0.1819935	0.79735532	-0.28508745	-0.3021679	0.7728671	0.082614376	-0.16458053	0.9068968	-0.20566515	-0.21268889	0.8735797	0.030113229	-0.39319486	0.89715673	-0.10908107	-0.28053527	1.3706687	-0.23307348	-0.27385805	1.3323643	0.090717661	-0.36497335	1.3780775	-0.070133536	-0.40910706	1.0596315	-0.30814221	-0.28922125	0.97747696	0.10694367	-0.34081886	0.83401795	-0.36263356	-0.089040461	0.82554991	0.11175358
196	0.78	0.015065915	0.016974457	-0.1189318	-0.64419145	0.067882668	-0.032470873	-0.11703948	0.039858476	-0.15613696	-0.6495087	0.21133581	0.00034391768	-0.11774535	0.063222727	-0.07305134	-0.60714963	0.18842784	-0.073451672	-0.1862604	0.011724609	-0.11798698	-0.67595996	0.24626821	-0.05626431	-0.069376417	0.42446892	-0.19524669	-0.323505	0.38500494	0.051505587	-0.08046421	0.40595612	-0.074674	-0.25730079	0.35674474	-0.065974586	-0.17652131	0.79802675	-0.28547398	-0.29553521	0.77333754	0.082488247	-0.15882713	0.90718619	-0.20597889	-0.20640397	0.87422146	0.029948933	-0.39151557	0.89864775	-0.10690834	-0.2743075	1.3716474	-0.23315243	-0.26747062	1.3328895	0.090699193	-0.35872323	1.3791225	-0.070116129	-0.40201021	1.0599642	-0.30852834	-0.28366463	0.97810951	0.10581782	-0.33209354	0.83493289	-0.36295535	-0.085704237	0.82375759	0.11142433
